<svg width="90" height="90" viewBox="0 0 90 90" fill="none" xmlns="http://www.w3.org/2000/svg">
<g filter="url(#filter0_d_3_260)">
<path d="M45 5C34.3913 5 24.2172 9.21427 16.7157 16.7157C9.21427 24.2172 5 34.3913 5 45C5 55.6087 9.21427 65.7828 16.7157 73.2843C24.2172 80.7857 34.3913 85 45 85C55.6087 85 65.7828 80.7857 73.2843 73.2843C80.7857 65.7828 85 55.6087 85 45C85 34.3913 80.7857 24.2172 73.2843 16.7157C65.7828 9.21427 55.6087 5 45 5ZM62.5 42.5C63.163 42.5 63.7989 42.7634 64.2678 43.2322C64.7366 43.7011 65 44.337 65 45C65 45.663 64.7366 46.2989 64.2678 46.7678C63.7989 47.2366 63.163 47.5 62.5 47.5H33.535L44.27 58.23C44.5024 58.4624 44.6868 58.7384 44.8126 59.0421C44.9384 59.3458 45.0032 59.6713 45.0032 60C45.0032 60.3287 44.9384 60.6542 44.8126 60.9579C44.6868 61.2616 44.5024 61.5376 44.27 61.77C44.0376 62.0024 43.7616 62.1868 43.4579 62.3126C43.1542 62.4384 42.8287 62.5032 42.5 62.5032C42.1713 62.5032 41.8458 62.4384 41.5421 62.3126C41.2384 62.1868 40.9624 62.0024 40.73 61.77L25.73 46.77C25.4972 46.5378 25.3125 46.2619 25.1864 45.9582C25.0604 45.6544 24.9955 45.3288 24.9955 45C24.9955 44.6712 25.0604 44.3456 25.1864 44.0418C25.3125 43.7381 25.4972 43.4622 25.73 43.23L40.73 28.23C40.9624 27.9976 41.2384 27.8132 41.5421 27.6874C41.8458 27.5616 42.1713 27.4968 42.5 27.4968C42.8287 27.4968 43.1542 27.5616 43.4579 27.6874C43.7616 27.8132 44.0376 27.9976 44.27 28.23C44.5024 28.4624 44.6868 28.7384 44.8126 29.0421C44.9384 29.3458 45.0032 29.6713 45.0032 30C45.0032 30.3287 44.9384 30.6542 44.8126 30.9579C44.6868 31.2616 44.5024 31.5376 44.27 31.77L33.535 42.5H62.5Z" fill="#FFFEFE"/>
</g>
<defs>
<filter id="filter0_d_3_260" x="0" y="0" width="90" height="90" filterUnits="userSpaceOnUse" color-interpolation-filters="sRGB">
<feFlood flood-opacity="0" result="BackgroundImageFix"/>
<feColorMatrix in="SourceAlpha" type="matrix" values="0 0 0 0 0 0 0 0 0 0 0 0 0 0 0 0 0 0 127 0" result="hardAlpha"/>
<feOffset/>
<feGaussianBlur stdDeviation="2.5"/>
<feComposite in2="hardAlpha" operator="out"/>
<feColorMatrix type="matrix" values="0 0 0 0 0 0 0 0 0 0 0 0 0 0 0 0 0 0 0.5 0"/>
<feBlend mode="normal" in2="BackgroundImageFix" result="effect1_dropShadow_3_260"/>
<feBlend mode="normal" in="SourceGraphic" in2="effect1_dropShadow_3_260" result="shape"/>
</filter>
</defs>
</svg>
